<?xml version="1.0" encoding="UTF-8" standalone="no"?><svg xmlns="http://www.w3.org/2000/svg" xmlns:xlink="http://www.w3.org/1999/xlink" contentScriptType="application/ecmascript" contentStyleType="text/css" height="499px" preserveAspectRatio="none" style="width:332px;height:499px;" version="1.1" viewBox="0 0 332 499" width="332px" zoomAndPan="magnify"><defs><filter height="300%" id="f17bmnrjmcyori" width="300%" x="-1" y="-1"><feGaussianBlur result="blurOut" stdDeviation="2.0"/><feColorMatrix in="blurOut" result="blurOut2" type="matrix" values="0 0 0 0 0 0 0 0 0 0 0 0 0 0 0 0 0 0 .4 0"/><feOffset dx="4.0" dy="4.0" in="blurOut2" result="blurOut3"/><feBlend in="SourceGraphic" in2="blurOut3" mode="normal"/></filter></defs><g><!--class Iterable--><rect fill="#FEFECE" filter="url(#f17bmnrjmcyori)" height="48" id="Iterable" style="stroke: #A80036; stroke-width: 1.5;" width="92" x="91" y="8"/><ellipse cx="106" cy="24" fill="#B4A7E5" rx="11" ry="11" style="stroke: #A80036; stroke-width: 1.0;"/><path d="M101.9219,19.7656 L101.9219,17.6094 L109.3125,17.6094 L109.3125,19.7656 L106.8438,19.7656 L106.8438,27.8438 L109.3125,27.8438 L109.3125,30 L101.9219,30 L101.9219,27.8438 L104.3906,27.8438 L104.3906,19.7656 L101.9219,19.7656 Z "/><text fill="#000000" font-family="sans-serif" font-size="12" font-style="italic" lengthAdjust="spacingAndGlyphs" textLength="49" x="120" y="28.1543">Iterable</text><rect fill="#FFFFFF" height="15.9688" style="stroke: #000000; stroke-width: 1.0; stroke-dasharray: 2.0,2.0;" width="9" x="177" y="5"/><text fill="#000000" font-family="sans-serif" font-size="12" font-style="italic" lengthAdjust="spacingAndGlyphs" textLength="7" x="178" y="17.1387">T</text><line style="stroke: #A80036; stroke-width: 1.5;" x1="92" x2="182" y1="40" y2="40"/><line style="stroke: #A80036; stroke-width: 1.5;" x1="92" x2="182" y1="48" y2="48"/><!--class Collection--><rect fill="#FEFECE" filter="url(#f17bmnrjmcyori)" height="48" id="Collection" style="stroke: #A80036; stroke-width: 1.5;" width="104" x="85" y="116"/><ellipse cx="100" cy="132" fill="#B4A7E5" rx="11" ry="11" style="stroke: #A80036; stroke-width: 1.0;"/><path d="M95.9219,127.7656 L95.9219,125.6094 L103.3125,125.6094 L103.3125,127.7656 L100.8438,127.7656 L100.8438,135.8438 L103.3125,135.8438 L103.3125,138 L95.9219,138 L95.9219,135.8438 L98.3906,135.8438 L98.3906,127.7656 L95.9219,127.7656 Z "/><text fill="#000000" font-family="sans-serif" font-size="12" font-style="italic" lengthAdjust="spacingAndGlyphs" textLength="61" x="114" y="136.1543">Collection</text><rect fill="#FFFFFF" height="15.9688" style="stroke: #000000; stroke-width: 1.0; stroke-dasharray: 2.0,2.0;" width="9" x="183" y="113"/><text fill="#000000" font-family="sans-serif" font-size="12" font-style="italic" lengthAdjust="spacingAndGlyphs" textLength="7" x="184" y="125.1387">T</text><line style="stroke: #A80036; stroke-width: 1.5;" x1="86" x2="188" y1="148" y2="148"/><line style="stroke: #A80036; stroke-width: 1.5;" x1="86" x2="188" y1="156" y2="156"/><!--class List--><rect fill="#FEFECE" filter="url(#f17bmnrjmcyori)" height="48" id="List" style="stroke: #A80036; stroke-width: 1.5;" width="64" x="6" y="224"/><ellipse cx="21" cy="240" fill="#B4A7E5" rx="11" ry="11" style="stroke: #A80036; stroke-width: 1.0;"/><path d="M16.9219,235.7656 L16.9219,233.6094 L24.3125,233.6094 L24.3125,235.7656 L21.8438,235.7656 L21.8438,243.8438 L24.3125,243.8438 L24.3125,246 L16.9219,246 L16.9219,243.8438 L19.3906,243.8438 L19.3906,235.7656 L16.9219,235.7656 Z "/><text fill="#000000" font-family="sans-serif" font-size="12" font-style="italic" lengthAdjust="spacingAndGlyphs" textLength="21" x="35" y="244.1543">List</text><rect fill="#FFFFFF" height="15.9688" style="stroke: #000000; stroke-width: 1.0; stroke-dasharray: 2.0,2.0;" width="9" x="64" y="221"/><text fill="#000000" font-family="sans-serif" font-size="12" font-style="italic" lengthAdjust="spacingAndGlyphs" textLength="7" x="65" y="233.1387">T</text><line style="stroke: #A80036; stroke-width: 1.5;" x1="7" x2="69" y1="256" y2="256"/><line style="stroke: #A80036; stroke-width: 1.5;" x1="7" x2="69" y1="264" y2="264"/><!--class Set--><rect fill="#FEFECE" filter="url(#f17bmnrjmcyori)" height="48" id="Set" style="stroke: #A80036; stroke-width: 1.5;" width="64" x="105" y="224"/><ellipse cx="120" cy="240" fill="#B4A7E5" rx="11" ry="11" style="stroke: #A80036; stroke-width: 1.0;"/><path d="M115.9219,235.7656 L115.9219,233.6094 L123.3125,233.6094 L123.3125,235.7656 L120.8438,235.7656 L120.8438,243.8438 L123.3125,243.8438 L123.3125,246 L115.9219,246 L115.9219,243.8438 L118.3906,243.8438 L118.3906,235.7656 L115.9219,235.7656 Z "/><text fill="#000000" font-family="sans-serif" font-size="12" font-style="italic" lengthAdjust="spacingAndGlyphs" textLength="21" x="134" y="244.1543">Set</text><rect fill="#FFFFFF" height="15.9688" style="stroke: #000000; stroke-width: 1.0; stroke-dasharray: 2.0,2.0;" width="9" x="163" y="221"/><text fill="#000000" font-family="sans-serif" font-size="12" font-style="italic" lengthAdjust="spacingAndGlyphs" textLength="7" x="164" y="233.1387">T</text><line style="stroke: #A80036; stroke-width: 1.5;" x1="106" x2="168" y1="256" y2="256"/><line style="stroke: #A80036; stroke-width: 1.5;" x1="106" x2="168" y1="264" y2="264"/><!--class SortedSet--><rect fill="#FEFECE" filter="url(#f17bmnrjmcyori)" height="48" id="SortedSet" style="stroke: #A80036; stroke-width: 1.5;" width="106" x="77" y="332"/><ellipse cx="92" cy="348" fill="#B4A7E5" rx="11" ry="11" style="stroke: #A80036; stroke-width: 1.0;"/><path d="M87.9219,343.7656 L87.9219,341.6094 L95.3125,341.6094 L95.3125,343.7656 L92.8438,343.7656 L92.8438,351.8438 L95.3125,351.8438 L95.3125,354 L87.9219,354 L87.9219,351.8438 L90.3906,351.8438 L90.3906,343.7656 L87.9219,343.7656 Z "/><text fill="#000000" font-family="sans-serif" font-size="12" font-style="italic" lengthAdjust="spacingAndGlyphs" textLength="63" x="106" y="352.1543">SortedSet</text><rect fill="#FFFFFF" height="15.9688" style="stroke: #000000; stroke-width: 1.0; stroke-dasharray: 2.0,2.0;" width="9" x="177" y="329"/><text fill="#000000" font-family="sans-serif" font-size="12" font-style="italic" lengthAdjust="spacingAndGlyphs" textLength="7" x="178" y="341.1387">T</text><line style="stroke: #A80036; stroke-width: 1.5;" x1="78" x2="182" y1="364" y2="364"/><line style="stroke: #A80036; stroke-width: 1.5;" x1="78" x2="182" y1="372" y2="372"/><!--class NavigableSet--><rect fill="#FEFECE" filter="url(#f17bmnrjmcyori)" height="48" id="NavigableSet" style="stroke: #A80036; stroke-width: 1.5;" width="125" x="67.5" y="440"/><ellipse cx="82.5" cy="456" fill="#B4A7E5" rx="11" ry="11" style="stroke: #A80036; stroke-width: 1.0;"/><path d="M78.4219,451.7656 L78.4219,449.6094 L85.8125,449.6094 L85.8125,451.7656 L83.3438,451.7656 L83.3438,459.8438 L85.8125,459.8438 L85.8125,462 L78.4219,462 L78.4219,459.8438 L80.8906,459.8438 L80.8906,451.7656 L78.4219,451.7656 Z "/><text fill="#000000" font-family="sans-serif" font-size="12" font-style="italic" lengthAdjust="spacingAndGlyphs" textLength="82" x="96.5" y="460.1543">NavigableSet</text><rect fill="#FFFFFF" height="15.9688" style="stroke: #000000; stroke-width: 1.0; stroke-dasharray: 2.0,2.0;" width="9" x="186.5" y="437"/><text fill="#000000" font-family="sans-serif" font-size="12" font-style="italic" lengthAdjust="spacingAndGlyphs" textLength="7" x="187.5" y="449.1387">T</text><line style="stroke: #A80036; stroke-width: 1.5;" x1="68.5" x2="191.5" y1="472" y2="472"/><line style="stroke: #A80036; stroke-width: 1.5;" x1="68.5" x2="191.5" y1="480" y2="480"/><!--class Queue--><rect fill="#FEFECE" filter="url(#f17bmnrjmcyori)" height="48" id="Queue" style="stroke: #A80036; stroke-width: 1.5;" width="83" x="218.5" y="224"/><ellipse cx="233.5" cy="240" fill="#B4A7E5" rx="11" ry="11" style="stroke: #A80036; stroke-width: 1.0;"/><path d="M229.4219,235.7656 L229.4219,233.6094 L236.8125,233.6094 L236.8125,235.7656 L234.3438,235.7656 L234.3438,243.8438 L236.8125,243.8438 L236.8125,246 L229.4219,246 L229.4219,243.8438 L231.8906,243.8438 L231.8906,235.7656 L229.4219,235.7656 Z "/><text fill="#000000" font-family="sans-serif" font-size="12" font-style="italic" lengthAdjust="spacingAndGlyphs" textLength="40" x="247.5" y="244.1543">Queue</text><rect fill="#FFFFFF" height="15.9688" style="stroke: #000000; stroke-width: 1.0; stroke-dasharray: 2.0,2.0;" width="9" x="295.5" y="221"/><text fill="#000000" font-family="sans-serif" font-size="12" font-style="italic" lengthAdjust="spacingAndGlyphs" textLength="7" x="296.5" y="233.1387">T</text><line style="stroke: #A80036; stroke-width: 1.5;" x1="219.5" x2="300.5" y1="256" y2="256"/><line style="stroke: #A80036; stroke-width: 1.5;" x1="219.5" x2="300.5" y1="264" y2="264"/><!--class DeQueue--><rect fill="#FEFECE" filter="url(#f17bmnrjmcyori)" height="48" id="DeQueue" style="stroke: #A80036; stroke-width: 1.5;" width="100" x="218" y="332"/><ellipse cx="233" cy="348" fill="#B4A7E5" rx="11" ry="11" style="stroke: #A80036; stroke-width: 1.0;"/><path d="M228.9219,343.7656 L228.9219,341.6094 L236.3125,341.6094 L236.3125,343.7656 L233.8438,343.7656 L233.8438,351.8438 L236.3125,351.8438 L236.3125,354 L228.9219,354 L228.9219,351.8438 L231.3906,351.8438 L231.3906,343.7656 L228.9219,343.7656 Z "/><text fill="#000000" font-family="sans-serif" font-size="12" font-style="italic" lengthAdjust="spacingAndGlyphs" textLength="57" x="247" y="352.1543">DeQueue</text><rect fill="#FFFFFF" height="15.9688" style="stroke: #000000; stroke-width: 1.0; stroke-dasharray: 2.0,2.0;" width="9" x="312" y="329"/><text fill="#000000" font-family="sans-serif" font-size="12" font-style="italic" lengthAdjust="spacingAndGlyphs" textLength="7" x="313" y="341.1387">T</text><line style="stroke: #A80036; stroke-width: 1.5;" x1="219" x2="317" y1="364" y2="364"/><line style="stroke: #A80036; stroke-width: 1.5;" x1="219" x2="317" y1="372" y2="372"/><!--link Iterable to Collection--><path d="M137,76.024 C137,89.579 137,104.038 137,115.678 " fill="none" id="Iterable-Collection" style="stroke: #A80036; stroke-width: 1.0;"/><polygon fill="none" points="130,76,137,56,144,76,130,76" style="stroke: #A80036; stroke-width: 1.0;"/><!--link Collection to List--><path d="M101.7401,178.753 C87.7391,193.744 72.0768,210.514 59.7815,223.678 " fill="none" id="Collection-List" style="stroke: #A80036; stroke-width: 1.0;"/><polygon fill="none" points="96.7514,173.839,115.518,164,106.983,183.395,96.7514,173.839" style="stroke: #A80036; stroke-width: 1.0;"/><!--link Collection to Set--><path d="M137,184.024 C137,197.579 137,212.038 137,223.678 " fill="none" id="Collection-Set" style="stroke: #A80036; stroke-width: 1.0;"/><polygon fill="none" points="130,184,137,164,144,184,130,184" style="stroke: #A80036; stroke-width: 1.0;"/><!--link Collection to Queue--><path d="M178.894,177.104 C196.763,192.503 217.099,210.029 232.938,223.678 " fill="none" id="Collection-Queue" style="stroke: #A80036; stroke-width: 1.0;"/><polygon fill="none" points="174.27,182.359,163.689,164,183.409,171.754,174.27,182.359" style="stroke: #A80036; stroke-width: 1.0;"/><!--link Set to SortedSet--><path d="M134.159,292.024 C133.264,305.579 132.309,320.038 131.54,331.678 " fill="none" id="Set-SortedSet" style="stroke: #A80036; stroke-width: 1.0;"/><polygon fill="none" points="127.178,291.496,135.481,272,141.148,292.418,127.178,291.496" style="stroke: #A80036; stroke-width: 1.0;"/><!--link SortedSet to NavigableSet--><path d="M130,400.0236 C130,413.5792 130,428.0381 130,439.6784 " fill="none" id="SortedSet-NavigableSet" style="stroke: #A80036; stroke-width: 1.0;"/><polygon fill="none" points="123,400.0005,130,380,137,400.0004,123,400.0005" style="stroke: #A80036; stroke-width: 1.0;"/><!--link Queue to DeQueue--><path d="M263.247,292.024 C264.27,305.579 265.361,320.038 266.24,331.678 " fill="none" id="Queue-DeQueue" style="stroke: #A80036; stroke-width: 1.0;"/><polygon fill="none" points="256.261,292.471,261.736,272,270.221,291.417,256.261,292.471" style="stroke: #A80036; stroke-width: 1.0;"/><!--
@startuml
interface Iterable<T>
interface Collection<T>
interface List<T>
interface Set<T>
interface SortedSet<T>
interface NavigableSet<T>
interface Queue<T>
interface DeQueue<T>

Iterable <|- - Collection
Collection <|- - List
Collection <|- - Set
Collection <|- - Queue
Set <|- - SortedSet
SortedSet <|- - NavigableSet
Queue <|- - DeQueue
@enduml

PlantUML version 1.2017.15(Mon Jul 03 18:45:34 CEST 2017)
(APACHE source distribution)
Java Runtime: Java(TM) SE Runtime Environment
JVM: Java HotSpot(TM) 64-Bit Server VM
Java Version: 1.8.0_151-b12
Operating System: Linux
OS Version: 4.13.0-1-amd64
Default Encoding: UTF-8
Language: fr
Country: FR
--></g></svg>