<?xml version="1.0" encoding="UTF-8" standalone="no"?><svg xmlns="http://www.w3.org/2000/svg" xmlns:xlink="http://www.w3.org/1999/xlink" contentScriptType="application/ecmascript" contentStyleType="text/css" height="283px" preserveAspectRatio="none" style="width:150px;height:283px;" version="1.1" viewBox="0 0 150 283" width="150px" zoomAndPan="magnify"><defs><filter height="300%" id="fxq8xumq0s4y6" width="300%" x="-1" y="-1"><feGaussianBlur result="blurOut" stdDeviation="2.0"/><feColorMatrix in="blurOut" result="blurOut2" type="matrix" values="0 0 0 0 0 0 0 0 0 0 0 0 0 0 0 0 0 0 .4 0"/><feOffset dx="4.0" dy="4.0" in="blurOut2" result="blurOut3"/><feBlend in="SourceGraphic" in2="blurOut3" mode="normal"/></filter></defs><g><!--class Map--><rect fill="#FEFECE" filter="url(#fxq8xumq0s4y6)" height="48" id="Map" style="stroke: #A80036; stroke-width: 1.5;" width="69" x="36.5" y="8"/><ellipse cx="51.5" cy="24" fill="#B4A7E5" rx="11" ry="11" style="stroke: #A80036; stroke-width: 1.0;"/><path d="M47.4219,19.7656 L47.4219,17.6094 L54.8125,17.6094 L54.8125,19.7656 L52.3438,19.7656 L52.3438,27.8438 L54.8125,27.8438 L54.8125,30 L47.4219,30 L47.4219,27.8438 L49.8906,27.8438 L49.8906,19.7656 L47.4219,19.7656 Z "/><text fill="#000000" font-family="sans-serif" font-size="12" font-style="italic" lengthAdjust="spacingAndGlyphs" textLength="26" x="65.5" y="28.1543">Map</text><rect fill="#FFFFFF" height="15.9688" style="stroke: #000000; stroke-width: 1.0; stroke-dasharray: 2.0,2.0;" width="9" x="99.5" y="5"/><text fill="#000000" font-family="sans-serif" font-size="12" font-style="italic" lengthAdjust="spacingAndGlyphs" textLength="7" x="100.5" y="17.1387">T</text><line style="stroke: #A80036; stroke-width: 1.5;" x1="37.5" x2="104.5" y1="40" y2="40"/><line style="stroke: #A80036; stroke-width: 1.5;" x1="37.5" x2="104.5" y1="48" y2="48"/><!--class SortedMap--><rect fill="#FEFECE" filter="url(#fxq8xumq0s4y6)" height="48" id="SortedMap" style="stroke: #A80036; stroke-width: 1.5;" width="111" x="15.5" y="116"/><ellipse cx="30.5" cy="132" fill="#B4A7E5" rx="11" ry="11" style="stroke: #A80036; stroke-width: 1.0;"/><path d="M26.4219,127.7656 L26.4219,125.6094 L33.8125,125.6094 L33.8125,127.7656 L31.3438,127.7656 L31.3438,135.8438 L33.8125,135.8438 L33.8125,138 L26.4219,138 L26.4219,135.8438 L28.8906,135.8438 L28.8906,127.7656 L26.4219,127.7656 Z "/><text fill="#000000" font-family="sans-serif" font-size="12" font-style="italic" lengthAdjust="spacingAndGlyphs" textLength="68" x="44.5" y="136.1543">SortedMap</text><rect fill="#FFFFFF" height="15.9688" style="stroke: #000000; stroke-width: 1.0; stroke-dasharray: 2.0,2.0;" width="9" x="120.5" y="113"/><text fill="#000000" font-family="sans-serif" font-size="12" font-style="italic" lengthAdjust="spacingAndGlyphs" textLength="7" x="121.5" y="125.1387">T</text><line style="stroke: #A80036; stroke-width: 1.5;" x1="16.5" x2="125.5" y1="148" y2="148"/><line style="stroke: #A80036; stroke-width: 1.5;" x1="16.5" x2="125.5" y1="156" y2="156"/><!--class NavigableMap--><rect fill="#FEFECE" filter="url(#fxq8xumq0s4y6)" height="48" id="NavigableMap" style="stroke: #A80036; stroke-width: 1.5;" width="130" x="6" y="224"/><ellipse cx="21" cy="240" fill="#B4A7E5" rx="11" ry="11" style="stroke: #A80036; stroke-width: 1.0;"/><path d="M16.9219,235.7656 L16.9219,233.6094 L24.3125,233.6094 L24.3125,235.7656 L21.8438,235.7656 L21.8438,243.8438 L24.3125,243.8438 L24.3125,246 L16.9219,246 L16.9219,243.8438 L19.3906,243.8438 L19.3906,235.7656 L16.9219,235.7656 Z "/><text fill="#000000" font-family="sans-serif" font-size="12" font-style="italic" lengthAdjust="spacingAndGlyphs" textLength="87" x="35" y="244.1543">NavigableMap</text><rect fill="#FFFFFF" height="15.9688" style="stroke: #000000; stroke-width: 1.0; stroke-dasharray: 2.0,2.0;" width="9" x="130" y="221"/><text fill="#000000" font-family="sans-serif" font-size="12" font-style="italic" lengthAdjust="spacingAndGlyphs" textLength="7" x="131" y="233.1387">T</text><line style="stroke: #A80036; stroke-width: 1.5;" x1="7" x2="135" y1="256" y2="256"/><line style="stroke: #A80036; stroke-width: 1.5;" x1="7" x2="135" y1="264" y2="264"/><!--link Map to SortedMap--><path d="M71,76.024 C71,89.579 71,104.038 71,115.678 " fill="none" id="Map-SortedMap" style="stroke: #A80036; stroke-width: 1.0;"/><polygon fill="none" points="64.0001,76,71,56,78.0001,76,64.0001,76" style="stroke: #A80036; stroke-width: 1.0;"/><!--link SortedMap to NavigableMap--><path d="M71,184.0236 C71,197.5792 71,212.0381 71,223.6784 " fill="none" id="SortedMap-NavigableMap" style="stroke: #A80036; stroke-width: 1.0;"/><polygon fill="none" points="64.0001,184.0005,71,164,78.0001,184.0004,64.0001,184.0005" style="stroke: #A80036; stroke-width: 1.0;"/><!--
@startuml
interface Map<T>
interface SortedMap<T>
interface NavigableMap<T>

Map <|- - SortedMap
SortedMap <|- - NavigableMap
@enduml

PlantUML version 1.2017.15(Mon Jul 03 18:45:34 CEST 2017)
(APACHE source distribution)
Java Runtime: Java(TM) SE Runtime Environment
JVM: Java HotSpot(TM) 64-Bit Server VM
Java Version: 1.8.0_151-b12
Operating System: Linux
OS Version: 4.13.0-1-amd64
Default Encoding: UTF-8
Language: fr
Country: FR
--></g></svg>